<svg version="1.1" id="Layer_1" xmlns="http://www.w3.org/2000/svg" xmlns:xlink="http://www.w3.org/1999/xlink" x="0px" y="0px"
	 width="100%" viewBox="0 0 1080 1080" enable-background="new 0 0 1080 1080" xml:space="preserve">
<path fill="#964F37" opacity="1.000000" stroke="none" 
	d="
M491.000000,1081.000000 
	C327.352173,1081.000000 164.204330,1081.000000 1.028243,1081.000000 
	C1.028243,721.060364 1.028243,361.120728 1.028243,1.090556 
	C360.898041,1.090556 720.796143,1.090556 1080.847168,1.090556 
	C1080.847168,360.999939 1080.847168,720.999939 1080.847168,1081.000000 
	C884.453613,1081.000000 687.976807,1081.000000 491.000000,1081.000000 
M403.281189,786.850769 
	C396.496033,791.370361 390.007935,796.437134 382.871948,800.310425 
	C357.970032,813.826843 332.922852,814.118286 308.106171,799.848328 
	C284.973114,786.546387 269.952026,766.119385 260.102753,742.095154 
	C243.826675,702.394714 236.907700,660.511719 234.143616,617.903748 
	C231.990128,584.707947 233.892624,551.637817 238.000259,518.654968 
	C244.296936,468.094818 255.706070,418.945831 278.267273,372.916565 
	C290.743652,347.462250 306.133820,323.984436 327.253906,304.716492 
	C347.603210,286.151733 371.062225,275.931427 399.164459,278.482758 
	C420.650696,280.433441 439.006500,287.900299 450.354156,307.586029 
	C456.788879,318.748932 459.736786,331.035522 461.206818,343.696899 
	C466.194733,386.658905 453.849976,425.832001 434.248199,463.173920 
	C425.014679,480.764008 412.718994,485.694550 393.400055,481.429810 
	C380.095306,478.492676 371.976624,469.468933 370.960876,456.734558 
	C370.563904,451.757538 372.361359,448.429565 377.071381,446.526642 
	C378.448700,445.970215 380.024323,444.829346 380.596863,443.548615 
	C382.707825,438.826324 379.302429,432.140381 373.818634,429.637634 
	C368.618195,427.264191 364.667389,428.518402 362.035065,434.194672 
	C360.540833,437.416718 359.332947,441.185516 359.437927,444.664520 
	C359.927124,460.875854 373.624359,478.442749 389.037842,483.334198 
	C412.746643,490.858185 436.838226,483.702148 452.096985,463.839386 
	C477.006195,431.414368 487.127319,394.542480 482.564972,354.031189 
	C479.118622,323.429443 462.588287,301.119873 435.444397,287.081726 
	C403.303772,270.459381 369.104706,269.039032 334.639191,276.977570 
	C294.471771,286.229492 263.400604,310.171143 238.316971,341.983917 
	C216.012222,370.272339 200.588455,402.466522 189.194855,436.455811 
	C169.601578,494.906403 164.257324,554.859680 172.121750,615.995117 
	C177.545715,658.159180 189.895355,697.945923 212.759598,734.104675 
	C223.809509,751.579651 237.325806,766.911560 253.646378,779.602295 
	C271.744263,793.675232 292.145203,803.189087 314.070892,809.852051 
	C337.457642,816.959106 360.096436,816.440552 381.948181,804.953674 
	C401.197266,794.834961 418.777130,782.168457 435.424866,768.260010 
	C463.950684,744.427917 488.478455,716.687744 511.453613,687.675842 
	C528.390503,666.288818 543.892273,643.761108 559.879517,621.630371 
	C562.316833,618.256348 563.919617,614.279480 565.908447,610.581482 
	C565.398071,610.030945 564.887634,609.480469 564.377197,608.929932 
	C562.379639,610.089050 559.736206,610.772949 558.481323,612.478516 
	C539.337952,638.497803 521.179504,665.284973 501.179077,690.620178 
	C472.814880,726.550049 440.907257,759.172913 403.281189,786.850769 
M887.821716,411.361176 
	C884.773438,413.293121 881.095581,414.666809 878.794739,417.261566 
	C871.848389,425.095520 872.751953,435.212006 880.692078,443.203918 
	C911.577026,474.290039 942.507568,505.330811 973.413635,536.395935 
	C974.790283,537.779663 976.093933,539.236023 977.713196,540.957947 
	C976.086060,542.686279 974.776123,544.148376 973.392456,545.537109 
	C943.169250,575.871460 912.931396,606.191223 882.723633,636.540894 
	C880.850525,638.422791 878.956116,640.363037 877.487915,642.554993 
	C870.300232,653.285706 875.460144,666.970581 887.931946,670.394592 
	C895.975708,672.602844 902.090088,669.227295 907.606628,663.674011 
	C943.303894,627.739319 979.075684,591.878723 1014.790771,555.961731 
	C1024.401978,546.296143 1024.445679,535.827515 1014.849731,526.155701 
	C978.940125,489.962341 942.962036,453.836853 907.054199,417.641785 
	C901.883850,412.430115 895.943726,409.860748 887.821716,411.361176 
M632.925842,597.573425 
	C654.575562,619.276184 676.222961,640.981323 697.880249,662.676514 
	C699.291321,664.090027 700.677063,665.558411 702.248535,666.776978 
	C708.483643,671.611877 715.278503,672.560608 722.366089,668.949951 
	C729.304443,665.415222 732.380981,659.459473 732.123962,651.763367 
	C731.926880,645.859375 728.710388,641.491150 724.726379,637.502930 
	C694.112427,606.857117 663.514526,576.195251 632.921692,545.528381 
	C631.548645,544.151978 630.272400,542.679138 628.718567,540.999939 
	C630.291687,539.352905 631.515869,538.030212 632.783325,536.750427 
	C654.237488,515.087646 675.691223,493.424438 697.157837,471.773987 
	C707.128601,461.717773 717.175781,451.736786 727.092590,441.627716 
	C732.273865,436.345856 733.684265,428.184723 730.601807,421.710327 
	C727.209900,414.586273 721.550842,410.852783 713.543579,410.863007 
	C707.184937,410.871094 702.600098,414.304932 698.394348,418.542358 
	C662.950623,454.253662 627.500732,489.958862 592.059082,525.672119 
	C591.004089,526.735291 589.958496,527.817993 589.008972,528.974060 
	C582.672180,536.689026 582.349548,543.571472 588.044617,551.729187 
	C589.274963,553.491638 590.786072,555.081299 592.304077,556.615906 
	C605.660706,570.118896 619.048157,583.591370 632.925842,597.573425 
M758.050659,611.351196 
	C752.767578,625.201965 747.369812,639.010559 742.249756,652.921265 
	C739.681763,659.898193 740.880554,666.534058 746.097290,671.930786 
	C751.127563,677.134644 757.401062,678.763855 764.433655,676.661621 
	C771.706604,674.487549 775.193542,668.879883 777.740234,662.202942 
	C805.817810,588.591919 833.972107,515.010193 862.079834,441.410645 
	C863.979309,436.437012 866.032227,431.478271 867.371643,426.345062 
	C869.200989,419.334381 866.050293,411.609741 860.461914,407.807495 
	C853.334900,402.958344 845.851868,402.342102 839.620667,407.626923 
	C836.016541,410.683716 833.150513,415.296783 831.422668,419.776550 
	C806.908264,483.336914 782.645874,546.994446 758.050659,611.351196 
z"/>
<path fill="#F4D3AE" opacity="1.000000" stroke="none" 
	d="
M403.573822,786.642090 
	C440.907257,759.172913 472.814880,726.550049 501.179077,690.620178 
	C521.179504,665.284973 539.337952,638.497803 558.481323,612.478516 
	C559.736206,610.772949 562.379639,610.089050 564.377197,608.929932 
	C564.887634,609.480469 565.398071,610.030945 565.908447,610.581482 
	C563.919617,614.279480 562.316833,618.256348 559.879517,621.630371 
	C543.892273,643.761108 528.390503,666.288818 511.453613,687.675842 
	C488.478455,716.687744 463.950684,744.427917 435.424866,768.260010 
	C418.777130,782.168457 401.197266,794.834961 381.948181,804.953674 
	C360.096436,816.440552 337.457642,816.959106 314.070892,809.852051 
	C292.145203,803.189087 271.744263,793.675232 253.646378,779.602295 
	C237.325806,766.911560 223.809509,751.579651 212.759598,734.104675 
	C189.895355,697.945923 177.545715,658.159180 172.121750,615.995117 
	C164.257324,554.859680 169.601578,494.906403 189.194855,436.455811 
	C200.588455,402.466522 216.012222,370.272339 238.316971,341.983917 
	C263.400604,310.171143 294.471771,286.229492 334.639191,276.977570 
	C369.104706,269.039032 403.303772,270.459381 435.444397,287.081726 
	C462.588287,301.119873 479.118622,323.429443 482.564972,354.031189 
	C487.127319,394.542480 477.006195,431.414368 452.096985,463.839386 
	C436.838226,483.702148 412.746643,490.858185 389.037842,483.334198 
	C373.624359,478.442749 359.927124,460.875854 359.437927,444.664520 
	C359.332947,441.185516 360.540833,437.416718 362.035065,434.194672 
	C364.667389,428.518402 368.618195,427.264191 373.818634,429.637634 
	C379.302429,432.140381 382.707825,438.826324 380.596863,443.548615 
	C380.024323,444.829346 378.448700,445.970215 377.071381,446.526642 
	C372.361359,448.429565 370.563904,451.757538 370.960876,456.734558 
	C371.976624,469.468933 380.095306,478.492676 393.400055,481.429810 
	C412.718994,485.694550 425.014679,480.764008 434.248199,463.173920 
	C453.849976,425.832001 466.194733,386.658905 461.206818,343.696899 
	C459.736786,331.035522 456.788879,318.748932 450.354156,307.586029 
	C439.006500,287.900299 420.650696,280.433441 399.164459,278.482758 
	C371.062225,275.931427 347.603210,286.151733 327.253906,304.716492 
	C306.133820,323.984436 290.743652,347.462250 278.267273,372.916565 
	C255.706070,418.945831 244.296936,468.094818 238.000259,518.654968 
	C233.892624,551.637817 231.990128,584.707947 234.143616,617.903748 
	C236.907700,660.511719 243.826675,702.394714 260.102753,742.095154 
	C269.952026,766.119385 284.973114,786.546387 308.106171,799.848328 
	C332.922852,814.118286 357.970032,813.826843 382.871948,800.310425 
	C390.007935,796.437134 396.496033,791.370361 403.573822,786.642090 
z"/>
<path fill="#F5D3AE" opacity="1.000000" stroke="none" 
	d="
M888.194458,411.266418 
	C895.943726,409.860748 901.883850,412.430115 907.054199,417.641785 
	C942.962036,453.836853 978.940125,489.962341 1014.849731,526.155701 
	C1024.445679,535.827515 1024.401978,546.296143 1014.790771,555.961731 
	C979.075684,591.878723 943.303894,627.739319 907.606628,663.674011 
	C902.090088,669.227295 895.975708,672.602844 887.931946,670.394592 
	C875.460144,666.970581 870.300232,653.285706 877.487915,642.554993 
	C878.956116,640.363037 880.850525,638.422791 882.723633,636.540894 
	C912.931396,606.191223 943.169250,575.871460 973.392456,545.537109 
	C974.776123,544.148376 976.086060,542.686279 977.713196,540.957947 
	C976.093933,539.236023 974.790283,537.779663 973.413635,536.395935 
	C942.507568,505.330811 911.577026,474.290039 880.692078,443.203918 
	C872.751953,435.212006 871.848389,425.095520 878.794739,417.261566 
	C881.095581,414.666809 884.773438,413.293121 888.194458,411.266418 
z"/>
<path fill="#F5D3AE" opacity="1.000000" stroke="none" 
	d="
M632.676147,597.323120 
	C619.048157,583.591370 605.660706,570.118896 592.304077,556.615906 
	C590.786072,555.081299 589.274963,553.491638 588.044617,551.729187 
	C582.349548,543.571472 582.672180,536.689026 589.008972,528.974060 
	C589.958496,527.817993 591.004089,526.735291 592.059082,525.672119 
	C627.500732,489.958862 662.950623,454.253662 698.394348,418.542358 
	C702.600098,414.304932 707.184937,410.871094 713.543579,410.863007 
	C721.550842,410.852783 727.209900,414.586273 730.601807,421.710327 
	C733.684265,428.184723 732.273865,436.345856 727.092590,441.627716 
	C717.175781,451.736786 707.128601,461.717773 697.157837,471.773987 
	C675.691223,493.424438 654.237488,515.087646 632.783325,536.750427 
	C631.515869,538.030212 630.291687,539.352905 628.718567,540.999939 
	C630.272400,542.679138 631.548645,544.151978 632.921692,545.528381 
	C663.514526,576.195251 694.112427,606.857117 724.726379,637.502930 
	C728.710388,641.491150 731.926880,645.859375 732.123962,651.763367 
	C732.380981,659.459473 729.304443,665.415222 722.366089,668.949951 
	C715.278503,672.560608 708.483643,671.611877 702.248535,666.776978 
	C700.677063,665.558411 699.291321,664.090027 697.880249,662.676514 
	C676.222961,640.981323 654.575562,619.276184 632.676147,597.323120 
z"/>
<path fill="#F5D3AE" opacity="1.000000" stroke="none" 
	d="
M758.186646,610.989868 
	C782.645874,546.994446 806.908264,483.336914 831.422668,419.776550 
	C833.150513,415.296783 836.016541,410.683716 839.620667,407.626923 
	C845.851868,402.342102 853.334900,402.958344 860.461914,407.807495 
	C866.050293,411.609741 869.200989,419.334381 867.371643,426.345062 
	C866.032227,431.478271 863.979309,436.437012 862.079834,441.410645 
	C833.972107,515.010193 805.817810,588.591919 777.740234,662.202942 
	C775.193542,668.879883 771.706604,674.487549 764.433655,676.661621 
	C757.401062,678.763855 751.127563,677.134644 746.097290,671.930786 
	C740.880554,666.534058 739.681763,659.898193 742.249756,652.921265 
	C747.369812,639.010559 752.767578,625.201965 758.186646,610.989868 
z"/>
</svg>